<?xml version="1.0" encoding="UTF-8" standalone="no"?>
<svg
   xmlns:dc="http://purl.org/dc/elements/1.1/"
   xmlns:cc="http://creativecommons.org/ns#"
   xmlns:rdf="http://www.w3.org/1999/02/22-rdf-syntax-ns#"
   xmlns:svg="http://www.w3.org/2000/svg"
   xmlns="http://www.w3.org/2000/svg"
   xmlns:sodipodi="http://sodipodi.sourceforge.net/DTD/sodipodi-0.dtd"
   xmlns:inkscape="http://www.inkscape.org/namespaces/inkscape"
   viewBox="0 0 580 217.5"
   height="217.5"
   width="580"
   xml:space="preserve"
   version="1.1"
   id="svg2"
   sodipodi:docname="AmazonWebservices_Logo.svg"
   inkscape:version="0.92.1 r15371"><sodipodi:namedview
     pagecolor="#ffffff"
     bordercolor="#666666"
     borderopacity="1"
     objecttolerance="10"
     gridtolerance="10"
     guidetolerance="10"
     inkscape:pageopacity="0"
     inkscape:pageshadow="2"
     inkscape:window-width="2556"
     inkscape:window-height="1421"
     id="namedview40"
     showgrid="false"
     inkscape:zoom="1.0850575"
     inkscape:cx="86.784958"
     inkscape:cy="108.75"
     inkscape:window-x="0"
     inkscape:window-y="0"
     inkscape:window-maximized="0"
     inkscape:current-layer="g10" /><metadata
     id="metadata8"><rdf:RDF><cc:Work
         rdf:about=""><dc:format>image/svg+xml</dc:format><dc:type
           rdf:resource="http://purl.org/dc/dcmitype/StillImage" /></cc:Work></rdf:RDF></metadata><defs
     id="defs6" /><g
     transform="matrix(1.25,0,0,-1.25,0,217.5)"
     id="g10"><path
       inkscape:connector-curvature="0"
       d="M 128.967,114 102,123 v 39 l 27,-8 -0.033,-40"
       style="fill:#ffffff;fill-opacity:1;fill-rule:nonzero;stroke:none;stroke-width:0.1"
       id="path14" /><path
       inkscape:connector-curvature="0"
       d="m 136,154 27,8 -0.094,-38.973 L 136,114 v 40"
       style="fill:#ffffff;fill-opacity:1;fill-rule:nonzero;stroke:none;stroke-width:0.1"
       id="path16" /><path
       inkscape:connector-curvature="0"
       d="M 157.5,166.223 132.336,174 107.5,166.223 l 24.872,-6.667 25.128,6.667"
       style="fill:#ffffff;fill-opacity:1;fill-rule:nonzero;stroke:none;stroke-width:0.1"
       id="path18" /><path
       inkscape:connector-curvature="0"
       d="M 196.967,114 170,123 v 39 l 27,-8 -0.033,-40"
       style="fill:#ffffff;fill-opacity:1;fill-rule:nonzero;stroke:none;stroke-width:0.1"
       id="path20" /><path
       inkscape:connector-curvature="0"
       d="m 204,154 27,8 -0.094,-38.973 L 204,114 v 40"
       style="fill:#ffffff;fill-opacity:1;fill-rule:nonzero;stroke:none;stroke-width:0.1"
       id="path22" /><path
       inkscape:connector-curvature="0"
       d="M 225.5,166.223 200.336,174 175.5,166.223 l 24.872,-6.667 25.128,6.667"
       style="fill:#ffffff;fill-opacity:1;fill-rule:nonzero;stroke:none;stroke-width:0.1"
       id="path24" /><path
       inkscape:connector-curvature="0"
       d="M 27,97 0,105 V 66 L 26.9672,57 27,97"
       style="fill:#ffffff;fill-opacity:1;fill-rule:nonzero;stroke:none;stroke-width:0.1"
       id="path26" /><path
       inkscape:connector-curvature="0"
       d="M 34,97 61,105 60.9063,66.0262 34,57 v 40"
       style="fill:#ffffff;fill-opacity:1;fill-rule:nonzero;stroke:none;stroke-width:0.1"
       id="path28" /><path
       inkscape:connector-curvature="0"
       d="M 55.5,109.223 30.3359,117 5.5,109.223 30.3723,102.556 55.5,109.223"
       style="fill:#ffffff;fill-opacity:1;fill-rule:nonzero;stroke:none;stroke-width:0.1"
       id="path30" /><path
       inkscape:connector-curvature="0"
       d="M 94.9672,57 68,66 v 39 L 95,97 94.9672,57"
       style="fill:#ffffff;fill-opacity:1;fill-rule:nonzero;stroke:none;stroke-width:0.1"
       id="path32" /><path
       inkscape:connector-curvature="0"
       d="m 102,97 27,8 L 128.906,66.0262 102,57 v 40"
       style="fill:#ffffff;fill-opacity:1;fill-rule:nonzero;stroke:none;stroke-width:0.1"
       id="path34" /><path
       inkscape:connector-curvature="0"
       d="M 123.5,109.223 98.3359,117 73.5,109.223 98.3723,102.556 123.5,109.223"
       style="fill:#ffffff;fill-opacity:1;fill-rule:nonzero;stroke:none;stroke-width:0.1"
       id="path36" /><path
       inkscape:connector-curvature="0"
       d="M 60.9672,0 34,9 V 48 L 61,40 60.9672,0"
       style="fill:#ffffff;fill-opacity:1;fill-rule:nonzero;stroke:none;stroke-width:0.1"
       id="path38" /><path
       inkscape:connector-curvature="0"
       d="M 68,40 95,48 94.9063,9.02617 68,0 v 40"
       style="fill:#ffffff;fill-opacity:1;fill-rule:nonzero;stroke:none;stroke-width:0.1"
       id="path40" /><path
       inkscape:connector-curvature="0"
       d="M 89.5,52.223 64.3359,60 39.5,52.223 64.3723,45.5559 89.5,52.223"
       style="fill:#ffffff;fill-opacity:1;fill-rule:nonzero;stroke:none;stroke-width:0.1"
       id="path42" /><path
       inkscape:connector-curvature="0"
       d="m 180.39,34.475 -1.984,-0.007 c -0.728,0 -1.656,-0.4918 -1.884,-1.2891 l -6.019,-21.2051 -5.953,21.159 c -0.179,0.6633 -0.804,1.3352 -1.654,1.3352 h -2.349 c -0.846,0 -1.463,-0.6809 -1.634,-1.3489 l -5.538,-20.939 -5.722,21.0039 c -0.226,0.768 -1.177,1.284 -1.923,1.284 l -2.855,0.005 c -0.61,0 -1.177,-0.2621 -1.481,-0.6839 -0.206,-0.286 -0.263,-0.6102 -0.168,-0.8922 l 8.84,-31.29573 c 0.195,-0.658201 0.765,-1.321092 1.599,-1.321092 h 2.839 c 0.767,0 1.439,0.558985 1.633,1.351952 l 5.441,20.84687 5.921,-20.8707 c 0.178,-0.639059 0.751,-1.328122 1.589,-1.328122 h 2.793 c 0.777,0 1.431,0.539844 1.623,1.330862 l 8.509,31.27306 c 0.1,0.3012 0.042,0.6359 -0.161,0.918 -0.299,0.4152 -0.859,0.673 -1.462,0.673"
       style="fill:#ffffff;fill-opacity:1;fill-rule:nonzero;stroke:none;stroke-width:0.1"
       id="path44" /><path
       inkscape:connector-curvature="0"
       d="M 204.938,21.1879 H 189.94 c 0.345,4.209 3.078,8.573 7.708,8.741 4.927,-0.1609 7.181,-4.425 7.29,-8.741 z m -7.301,13.5109 c -10.131,0 -14.745,-8.9566 -14.745,-17.2777 0,-10.38516 5.736,-17.094928 14.613,-17.094928 6.353,0 11.196,3.209768 13.288,8.817968 0.112,0.3207 0.077,0.66875 -0.098,0.98086 -0.213,0.3789 -0.617,0.6648 -1.095,0.7699 l -2.812,0.5379 c -0.755,0.1184 -1.62,-0.3289 -1.906,-0.9777 -1.366,-3.11604 -3.856,-4.88401 -6.981,-4.97619 -3.007,0.09297 -5.768,1.87929 -7.033,4.54809 -1.028,2.18 -1.18,4.3289 -1.197,6.514 l 20.361,0.007 c 0.427,0 0.869,0.1879 1.181,0.504 0.261,0.2621 0.403,0.5878 0.4,0.914 -0.05,8.0899 -3.747,16.7328 -13.976,16.7328"
       style="fill:#ffffff;fill-opacity:1;fill-rule:nonzero;stroke:none;stroke-width:0.1"
       id="path46" /><path
       inkscape:connector-curvature="0"
       d="m 236.662,17.3711 c 0,-1.916 -0.347,-11.48321 -7.144,-11.72813 -2.278,0.08711 -4.58,1.42617 -5.866,3.40586 -0.947,1.49727 -1.5,3.56717 -1.642,6.12817 v 5.6289 c 0.111,4.3121 3.146,9.0441 7.486,9.2273 6.82,-0.2691 7.166,-10.5941 7.166,-12.6621 z m -6.078,17.618 h -0.539 c -3.363,0 -6.006,-1.3969 -8.035,-4.2602 l -0.003,13.193 c 0,0.741 -0.765,1.416 -1.61,1.416 h -2.928 c -0.765,0 -1.621,-0.6059 -1.623,-1.416 V 2.73789 c 0.003,-0.74805 0.768,-1.42773 1.612,-1.42773 l 0.86,0.00468 c 0.812,0 1.39,0.6543 1.585,1.26211 l 0.916,2.90703 c 2.128,-3.02187 5.333,-4.796871 8.763,-4.796871 h 0.525 c 9.035,0 13.079,8.787891 13.079,17.496891 0,4.3351 -1.069,8.4801 -2.932,11.3719 -2.153,3.3511 -5.859,5.4332 -9.67,5.4332"
       style="fill:#ffffff;fill-opacity:1;fill-rule:nonzero;stroke:none;stroke-width:0.1"
       id="path48" /><path
       inkscape:connector-curvature="0"
       d="m 275.247,18.298 c -1.904,1.368 -4.193,1.825 -6.486,2.2829 l -4.397,0.8152 c -3.155,0.5187 -4.981,1.3648 -4.981,4.1488 0,2.943 3.05,4.068 5.636,4.1379 3.158,-0.0797 5.533,-1.4887 6.686,-3.9668 0.274,-0.584 0.881,-0.9769 1.512,-0.9769 0.108,0 0.218,0.0121 0.322,0.0347 l 2.744,0.6063 c 0.448,0.0988 0.866,0.4058 1.09,0.8051 0.179,0.3168 0.218,0.6628 0.111,0.9718 -1.679,4.891 -5.942,7.4758 -12.391,7.4758 -5.827,-0.0129 -12.054,-2.6039 -12.054,-9.8406 0,-4.9461 3.108,-8.0871 9.244,-9.3371 l 4.922,-0.9379 c 2.702,-0.5172 5.465,-1.4371 5.465,-4.3383 0,-4.29492 -4.998,-4.73281 -6.509,-4.76406 -3.39,0.07305 -7.228,1.58516 -8.16,4.78716 -0.187,0.7039 -1.073,1.2019 -1.85,1.0402 l -2.87,-0.5922 c -0.432,-0.091 -0.827,-0.3719 -1.057,-0.75117 -0.193,-0.31602 -0.248,-0.66992 -0.159,-0.99297 1.481,-5.31289 6.61,-8.516797 13.72,-8.570704 l 0.158,-0.001172 c 6.35,0 13.135,2.719146 13.135,10.346916 0,3.105 -1.397,5.8812 -3.831,7.6171"
       style="fill:#ffffff;fill-opacity:1;fill-rule:nonzero;stroke:none;stroke-width:0.1"
       id="path50" /><path
       inkscape:connector-curvature="0"
       d="m 304.275,21.157 h -15.002 c 0.343,4.2129 3.076,8.5789 7.706,8.7391 4.925,-0.1563 7.182,-4.4199 7.296,-8.7391 z m -7.304,13.5129 c -10.133,0 -14.748,-8.957 -14.748,-17.2777 0,-10.38439 5.737,-17.093372 14.615,-17.093372 6.354,0 11.197,3.210152 13.291,8.817192 0.111,0.32109 0.076,0.66992 -0.1,0.98278 -0.213,0.3793 -0.618,0.6653 -1.095,0.7684 l -2.816,0.5379 c -0.659,0.107 -1.578,-0.234 -1.902,-0.9789 -1.367,-3.11409 -3.858,-4.88206 -6.98,-4.97815 -3.01,0.09609 -5.77,1.88203 -7.03,4.55 -1.03,2.17495 -1.183,4.32575 -1.198,6.51605 l 20.359,0.005 c 0.424,0 0.863,0.1868 1.175,0.5008 0.262,0.2633 0.404,0.5891 0.401,0.9172 -0.047,8.0891 -3.741,16.7328 -13.972,16.7328"
       style="fill:#ffffff;fill-opacity:1;fill-rule:nonzero;stroke:none;stroke-width:0.1"
       id="path52" /><path
       inkscape:connector-curvature="0"
       d="m 330.169,34.2891 c -0.397,0.0437 -0.779,0.0648 -1.15,0.0648 -3.417,0 -6.192,-1.8578 -8.118,-5.407 l 0.007,3.1082 c -0.003,0.7527 -0.754,1.414 -1.607,1.414 h -2.543 c -0.834,0 -1.57,-0.664 -1.576,-1.4261 L 315.178,1.85 c 0,-0.75781 0.736,-1.423047 1.576,-1.423047 l 2.967,0.001172 c 0.772,0 1.641,0.605855 1.648,1.421875 l 0.002,15.2219 c 0,2.5101 0.234,4.4011 1.433,6.6383 1.713,3.1867 4.105,4.75 7.313,4.775 0.804,0.0058 1.51,0.7078 1.51,1.5027 v 2.8242 c 0,0.7391 -0.641,1.3879 -1.458,1.477"
       style="fill:#ffffff;fill-opacity:1;fill-rule:nonzero;stroke:none;stroke-width:0.1"
       id="path54" /><path
       inkscape:connector-curvature="0"
       d="m 361.32,34.882 -2.343,-0.0011 c -0.734,0 -1.675,-0.527 -1.903,-1.3 L 349.479,9.71016 341.723,33.557 c -0.229,0.7918 -1.172,1.3239 -1.91,1.3239 l -3.346,0.0031 c -0.614,0 -1.208,-0.2738 -1.512,-0.6969 -0.204,-0.2832 -0.26,-0.6043 -0.159,-0.9039 L 345.411,1.79414 c 0.204,-0.62305 0.745,-1.351171 1.601,-1.351171 h 4.049 c 0.743,0 1.352,0.505859 1.631,1.353911 L 362.988,33.273 c 0.103,0.2989 0.048,0.6211 -0.155,0.9051 -0.306,0.427 -0.899,0.7039 -1.513,0.7039"
       style="fill:#ffffff;fill-opacity:1;fill-rule:nonzero;stroke:none;stroke-width:0.1"
       id="path56" /><path
       inkscape:connector-curvature="0"
       d="m 369.018,46.9859 c -2.158,0 -3.913,-1.7597 -3.913,-3.925 0,-2.1648 1.755,-3.9238 3.913,-3.9238 2.159,0 3.916,1.759 3.916,3.9238 0,2.1653 -1.757,3.925 -3.916,3.925"
       style="fill:#ffffff;fill-opacity:1;fill-rule:nonzero;stroke:none;stroke-width:0.1"
       id="path58" /><path
       inkscape:connector-curvature="0"
       d="m 370.629,35.0738 -3.213,0.0032 c -0.874,0 -1.67,-0.7071 -1.67,-1.4821 L 365.73,1.53594 c 0,-0.38789 0.2,-0.773049 0.546,-1.058987 0.317,-0.259765 0.722,-0.4097655 1.129,-0.4097655 l 3.236,-0.0050781 h 0.002 c 0.887,0.0078125 1.666,0.6957036 1.666,1.4718706 V 33.5949 c 0,0.7879 -0.786,1.4789 -1.68,1.4789"
       style="fill:#ffffff;fill-opacity:1;fill-rule:nonzero;stroke:none;stroke-width:0.1"
       id="path60" /><path
       inkscape:connector-curvature="0"
       d="m 400.656,13.334 -2.683,-0.0102 c -0.749,0 -1.377,-0.45 -1.656,-1.2316 -0.98,-4.22814 -3.2,-6.41915 -6.566,-6.51603 -6.556,0.19492 -7.065,9.33283 -7.065,12.12893 0,5.5758 1.931,11.5929 7.322,11.7519 3.254,-0.1 5.621,-2.4332 6.331,-6.2351 0.134,-0.7758 0.73,-1.3629 1.544,-1.4649 l 2.871,-0.0281 c 0.858,0.093 1.531,0.7422 1.525,1.5473 -1.016,6.8707 -5.777,11.3117 -12.14,11.3117 l -0.22,-0.0059 -0.249,0.0059 c -9.254,0 -13.397,-8.6367 -13.397,-17.1957 0,-7.84728 3.493,-17.010169 13.345,-17.010169 h 0.472 c 6.204,0 10.887,4.348829 12.228,11.399969 0.03,0.336 -0.086,0.6719 -0.324,0.945 -0.308,0.3539 -0.799,0.5808 -1.338,0.607"
       style="fill:#ffffff;fill-opacity:1;fill-rule:nonzero;stroke:none;stroke-width:0.1"
       id="path62" /><path
       inkscape:connector-curvature="0"
       d="M 427.154,21.157 H 412.15 c 0.343,4.2141 3.077,8.5789 7.71,8.7391 4.926,-0.1563 7.182,-4.4199 7.294,-8.7391 z m -7.304,13.5129 c -10.132,0 -14.746,-8.957 -14.746,-17.2777 0,-10.38439 5.737,-17.093372 14.615,-17.093372 6.351,0 11.192,3.208202 13.288,8.816012 0.109,0.32305 0.073,0.67305 -0.102,0.98396 -0.216,0.3821 -0.609,0.6614 -1.094,0.7684 l -2.812,0.5379 c -0.662,0.107 -1.578,-0.234 -1.902,-0.9789 -1.371,-3.11409 -3.863,-4.88206 -6.984,-4.97932 -3.009,0.09726 -5.768,1.8832 -7.028,4.55117 -1.031,2.17815 -1.184,4.32895 -1.2,6.51605 l 20.361,0.0031 c 0.428,0 0.87,0.1887 1.183,0.5058 0.26,0.2649 0.4,0.5911 0.395,0.9141 -0.047,8.0891 -3.742,16.7328 -13.974,16.7328"
       style="fill:#ffffff;fill-opacity:1;fill-rule:nonzero;stroke:none;stroke-width:0.1"
       id="path64" /><path
       inkscape:connector-curvature="0"
       d="m 459.331,18.298 c -1.907,1.3692 -4.199,1.8258 -6.488,2.2829 l -4.397,0.8152 c -3.152,0.5187 -4.977,1.3648 -4.977,4.1488 0,3.7961 4.711,4.1133 5.63,4.1379 3.161,-0.0797 5.536,-1.4887 6.687,-3.968 0.276,-0.5839 0.885,-0.9757 1.517,-0.9757 0.109,0 0.218,0.0121 0.324,0.0347 l 2.742,0.6063 c 0.448,0.0988 0.865,0.407 1.089,0.8058 0.178,0.3172 0.217,0.6621 0.11,0.9711 -1.677,4.891 -5.941,7.4758 -12.393,7.4758 -5.825,-0.0129 -12.05,-2.6039 -12.05,-9.8406 0,-4.9473 3.107,-8.0883 9.242,-9.3371 l 4.924,-0.9379 c 2.702,-0.5172 5.465,-1.4371 5.465,-4.3383 0,-4.29492 -4.998,-4.73281 -6.509,-4.76406 -3.143,0.06719 -7.166,1.36524 -8.159,4.78316 -0.182,0.7079 -1.067,1.2051 -1.858,1.0442 L 437.365,10.65 c -0.434,-0.0922 -0.83,-0.375 -1.06,-0.75508 -0.191,-0.31679 -0.246,-0.66797 -0.156,-0.98906 1.477,-5.31289 6.605,-8.516797 13.716,-8.570704 l 0.158,-0.001172 c 6.351,0 13.137,2.719146 13.137,10.346916 0,3.107 -1.396,5.8839 -3.829,7.6171"
       style="fill:#ffffff;fill-opacity:1;fill-rule:nonzero;stroke:none;stroke-width:0.1"
       id="path66" /><path
       inkscape:connector-curvature="0"
       d="m 328.715,96.798 v 7.28 c 0.004,1.104 0.842,1.845 1.848,1.844 l 32.615,0.001 c 1.041,0 1.881,-0.759 1.881,-1.837 v -6.243 c -0.01,-1.045 -0.893,-2.4114 -2.457,-4.5813 L 345.709,69.141 c 6.268,0.1488 12.904,-0.7898 18.6,-3.9922 1.287,-0.7218 1.629,-1.7929 1.734,-2.8386 v -7.768 c 0,-1.0711 -1.172,-2.309 -2.402,-1.6641 -10.039,5.2598 -23.362,5.834 -34.465,-0.0609 -1.133,-0.6051 -2.321,0.6137 -2.321,1.6848 v 7.3812 c 0,1.1777 0.024,3.2008 1.213,5.0027 l 19.575,28.0782 -17.041,0.0039 c -1.043,0 -1.877,0.7422 -1.887,1.83"
       style="fill:#ffffff;fill-opacity:1;fill-rule:evenodd;stroke:none;stroke-width:0.1"
       id="path68" /><path
       inkscape:connector-curvature="0"
       d="m 209.745,51.3461 h -9.925 c -0.943,0.0617 -1.698,0.773 -1.773,1.6801 l 0.007,50.9278 c 0,1.019 0.858,1.833 1.914,1.833 l 9.241,0.005 c 0.968,-0.054 1.742,-0.784 1.808,-1.71 v -6.6543 h 0.184 c 2.406,6.4333 6.945,9.4293 13.057,9.4293 6.205,0 10.096,-2.996 12.875,-9.4293 2.41,6.4333 7.873,9.4293 13.713,9.4293 4.168,0 8.701,-1.712 11.48,-5.568 3.149,-4.289 2.5,-10.5007 2.5,-15.9687 L 264.82,53.1809 c 0,-1.0161 -0.857,-1.8348 -1.912,-1.8348 h -9.91 c -0.998,0.0617 -1.783,0.8578 -1.783,1.8301 V 80.177 c 0,2.1421 0.183,7.5027 -0.279,9.5371 -0.743,3.4324 -2.967,4.3914 -5.834,4.3914 -2.411,0 -4.913,-1.6075 -5.932,-4.1739 -1.018,-2.5761 -0.924,-6.8625 -0.924,-9.7546 V 53.1809 c 0,-1.0161 -0.857,-1.8348 -1.914,-1.8348 h -9.912 c -0.993,0.0617 -1.78,0.8578 -1.78,1.8301 l -0.013,27.0008 c 0,5.6804 0.929,14.0359 -6.109,14.0359 -7.132,0 -6.854,-8.1426 -6.854,-14.0359 l -0.006,-26.9961 c 0.004,-1.0161 -0.854,-1.8348 -1.913,-1.8348"
       style="fill:#ffffff;fill-opacity:1;fill-rule:evenodd;stroke:none;stroke-width:0.1"
       id="path70" /><path
       inkscape:connector-curvature="0"
       d="m 393.229,96.4656 c -7.321,0 -7.782,-9.9656 -7.782,-16.1836 0,-6.2144 -0.092,-19.5019 7.692,-19.5019 7.689,0 8.058,10.7168 8.058,17.2531 0,4.2859 -0.183,9.4285 -1.48,13.5012 -1.115,3.5379 -3.336,4.9312 -6.488,4.9312 z m -0.09,10.3914 c 14.726,0 22.693,-12.6441 22.693,-28.7132 0,-15.5426 -8.803,-27.8676 -22.693,-27.8676 -14.451,0 -22.326,12.6476 -22.326,28.4008 0,15.8601 7.964,28.18 22.326,28.18"
       style="fill:#ffffff;fill-opacity:1;fill-rule:evenodd;stroke:none;stroke-width:0.1"
       id="path72" /><path
       inkscape:connector-curvature="0"
       d="m 434.932,51.3461 h -9.887 c -0.996,0.0617 -1.781,0.8578 -1.781,1.8301 l -0.014,50.9508 c 0.082,0.928 0.906,1.66 1.902,1.66 l 9.207,0.005 c 0.868,-0.048 1.58,-0.638 1.762,-1.427 v -7.7927 h 0.188 c 2.775,6.9667 6.668,10.2847 13.519,10.2847 4.447,0 8.803,-1.603 11.58,-5.998 C 464,96.7883 464,89.9316 464,85.0012 V 52.952 c -0.111,-0.9032 -0.916,-1.6059 -1.896,-1.6059 h -9.952 c -0.918,0.0598 -1.656,0.7379 -1.767,1.6059 v 27.6535 c 0,5.5722 0.65,13.7187 -6.207,13.7187 -2.407,0 -4.627,-1.6113 -5.74,-4.073 -1.391,-3.1067 -1.575,-6.2141 -1.575,-9.6457 V 53.1809 c -0.017,-1.0161 -0.875,-1.8348 -1.931,-1.8348"
       style="fill:#ffffff;fill-opacity:1;fill-rule:evenodd;stroke:none;stroke-width:0.1"
       id="path74" /><path
       inkscape:connector-curvature="0"
       d="m 312.719,51.475 c -0.658,-0.5871 -1.6,-0.6262 -2.342,-0.2309 -3.295,2.7391 -3.887,4.009 -5.688,6.6141 -5.447,-5.548 -9.304,-7.2121 -16.357,-7.2121 -8.357,0 -14.853,5.1559 -14.853,15.466 0,8.0527 4.361,13.5305 10.58,16.2172 5.384,2.3633 12.904,2.7937 18.658,3.4402 v 1.2871 c 0,2.3614 0.185,5.1551 -1.209,7.1946 -1.203,1.8258 -3.524,2.5758 -5.569,2.5758 -3.785,0 -7.148,-1.9403 -7.976,-5.9598 -0.168,-0.8926 -0.824,-1.7793 -1.723,-1.8223 l -9.615,1.0418 c -0.814,0.1828 -1.715,0.8321 -1.48,2.0715 2.21,11.6698 12.746,15.1958 22.189,15.1958 4.824,0 11.139,-1.288 14.945,-4.939 4.825,-4.5127 4.36,-10.5263 4.36,-17.0783 V 69.8781 c 0,-4.65 1.933,-6.691 3.75,-9.1972 0.629,-0.9039 0.771,-1.975 -0.037,-2.6379 -2.026,-1.6981 -5.627,-4.8231 -7.606,-6.5899 z m -10.002,24.1961 c 0,-3.8672 0.092,-7.0922 -1.858,-10.5262 -1.578,-2.7949 -4.086,-4.5117 -6.871,-4.5117 -3.802,0 -6.029,2.8988 -6.029,7.1969 0,8.4492 7.582,9.9875 14.758,9.9875 v -2.1465"
       style="fill:#ffffff;fill-opacity:1;fill-rule:evenodd;stroke:none;stroke-width:0.1"
       id="path76" /><path
       inkscape:connector-curvature="0"
       d="m 182.645,51.475 c -0.656,-0.5871 -1.605,-0.6262 -2.347,-0.2309 -3.295,2.7391 -3.885,4.009 -5.688,6.6141 -5.444,-5.548 -9.303,-7.2121 -16.36,-7.2121 -8.354,0 -14.852,5.1559 -14.852,15.466 0,8.0527 4.365,13.5305 10.584,16.2172 5.385,2.3633 12.904,2.7937 18.658,3.4402 v 1.2871 c 0,2.3614 0.187,5.1551 -1.207,7.1946 -1.206,1.8258 -3.529,2.5758 -5.568,2.5758 -3.785,0 -7.152,-1.9403 -7.977,-5.9598 -0.172,-0.8926 -0.825,-1.7793 -1.723,-1.8223 l -9.619,1.0418 c -0.812,0.1828 -1.714,0.8321 -1.481,2.0715 2.21,11.6698 12.747,15.1958 22.189,15.1958 4.83,0 11.14,-1.288 14.947,-4.939 4.827,-4.5127 4.361,-10.5263 4.361,-17.0783 V 69.8781 c 0,-4.65 1.934,-6.691 3.746,-9.1972 0.632,-0.9039 0.775,-1.975 -0.031,-2.6379 -2.028,-1.6981 -5.631,-4.8231 -7.609,-6.5899 z M 172.64,75.6711 c 0,-3.8672 0.091,-7.0922 -1.855,-10.5262 -1.577,-2.7949 -4.087,-4.5117 -6.868,-4.5117 -3.81,0 -6.036,2.8988 -6.036,7.1969 0,8.4492 7.58,9.9875 14.759,9.9875 v -2.1465"
       style="fill:#ffffff;fill-opacity:1;fill-rule:evenodd;stroke:none;stroke-width:0.1"
       id="path78" /></g></svg>