<?xml version="1.0" encoding="utf-8"?>
<!-- Generator: Adobe Illustrator 18.0.0, SVG Export Plug-In . SVG Version: 6.00 Build 0)  -->
<!DOCTYPE svg PUBLIC "-//W3C//DTD SVG 1.1//EN" "http://www.w3.org/Graphics/SVG/1.1/DTD/svg11.dtd">
<svg version="1.1" id="Layer_1" xmlns="http://www.w3.org/2000/svg" xmlns:xlink="http://www.w3.org/1999/xlink" x="0px" y="0px"
	 viewBox="0 0 711.5 268" enable-background="new 0 0 711.5 268" xml:space="preserve">
<g>
	<path fill="#FFFFFF" d="M236.1,3.3c0,87.1,0,173.8,0,260.7c-7.8,0-15.6,0-23.6,0c0-70.4,0-140.8,0-211.2c-0.2-0.1-0.4-0.1-0.7-0.2
		c-2.1,4-4.2,8-6.2,12C179.7,114.7,153.8,165,128,215.2c-1.1,2-2.2,2.9-4.6,2.7c-3.7-0.2-7.5-0.2-11.2,0c-1.9,0.1-2.9-0.5-3.8-2.2
		c-7.8-15.2-15.6-30.4-23.5-45.6C65,131.7,45.2,93.3,25.3,54.9c-0.3-0.6-0.6-1.1-1.4-1.6c0,70.1,0,140.3,0,210.6c-8.2,0-16,0-24,0
		C0,177.2,0,90.4,0,3.5c0.6-0.1,1.3-0.2,2-0.2c6.9,0,13.9,0,20.8,0c1.6,0,2.4,0.5,3.1,1.9c30.4,58.7,60.8,117.3,91.2,175.9
		c0.3,0.5,0.6,1.1,1.1,2c2.5-4.7,4.7-9,7-13.3c28.2-54.4,56.4-108.7,84.5-163.1c1.3-2.6,2.7-3.6,5.8-3.5
		C222.3,3.5,229.1,3.3,236.1,3.3z"/>
	<path fill="#FFFFFF" d="M390,125.2c17.9,19.5,35.6,38.8,53.6,58.4c10.6-17.2,21.1-34.3,31.8-51.5c6.5,4.1,12.7,8,19.2,12
		c-11.7,19.1-23.4,38-35.1,57.2c16.1,17.1,32.1,34.1,48.2,51.2c-5.9,5.2-11.7,10.2-17.7,15.4c-14.4-15.4-28.8-30.8-42.8-45.7
		c-5.5,6.6-10.6,13.4-16.5,19.5c-13.8,14.1-30.8,21.3-50.5,22.3c-18.7,1-36.3-2.6-52.1-12.9c-18-11.6-29.1-27.9-31.6-49.4
		c-2.4-20.3,3.8-37.9,18.1-52.6c10.5-10.8,23-19,36-26.6c1-0.6,2-1.2,3-1.8c-5.1-5.7-10.2-11.2-15-17.1c-8-9.8-14.8-20.4-17-33.2
		c-4.1-22.8,3.5-41.4,21.9-55.2c23.4-17.5,57.6-14.5,78.1,6.1c18,18.1,20.6,46.8,6.3,68.9c-8.4,13-20,22.6-32.5,31.2
		C393.6,122.8,391.9,123.9,390,125.2z M368.9,137.2c-2.2,1.2-4.2,2.3-6.2,3.5c-11.3,6.6-22.4,13.6-31.3,23.6
		c-15.7,17.6-15.1,44.2,1.5,60.9c15.4,15.5,34.2,19.7,55.1,15.9c21.2-3.8,33-19.2,43.5-36C410.6,182.5,389.8,160,368.9,137.2z
		 M378.6,25.2c-19.4,0-34.1,14.2-34.6,33.7c-0.3,9.5,3.5,17.7,9.2,24.9c6.6,8.4,13.8,16.2,20.6,24.4c1,1.2,1.7,1,2.7,0.3
		c9.7-5.9,19-12.3,26.4-21c8.4-9.8,12.5-21,10.3-33.9C410,35.6,397,25.2,378.6,25.2z"/>
	<path fill="#FFFFFF" d="M709.7,59.1c-7.4,2.7-14.4,5.2-21.7,7.8c-1-2.4-1.8-4.7-2.8-6.9c-9.4-20.5-25.6-32.3-47.4-36.4
		c-16.4-3.1-32.7-2-48.2,4.9c-23.1,10.2-29.8,32.7-25.6,51c1.9,8.4,7.3,14.6,14.1,19.5c10.2,7.2,21.8,11.2,33.5,14.9
		c16,5,32.1,9.5,47.9,15c13.4,4.6,25.9,11.1,36,21.5c9.9,10.1,14.7,22.4,15.7,36.3c1.2,17-2.4,32.8-12.4,46.8
		c-10.6,15-25.3,24.3-42.8,29c-28.4,7.5-56.3,6.3-83-6.8c-17.3-8.4-30.1-21.9-40.4-37.9c-2.3-3.5-4.4-7.1-6.7-11
		c6.8-4.2,13.4-8.2,20.2-12.4c1.9,3.4,3.7,6.8,5.6,10c11.2,18.4,26.4,31.9,47.5,37.3c21.5,5.6,42.9,4.5,63.1-5.6
		c15.8-7.9,23.3-21.5,24.8-38.9c1.2-13.8-3-25.2-14.3-33.5c-4.6-3.4-9.5-6.6-14.8-8.6c-14.5-5.4-29.2-10.2-43.9-14.9
		c-14.8-4.7-29.7-9.2-43.3-17c-13.5-7.7-24.4-17.8-29.1-33.1C533.5,63,540.6,28,574,11c17.9-9.1,36.9-12,56.7-10.6
		c15.9,1.1,31,5.2,44.7,13.6C692.6,24.5,703.6,39.8,709.7,59.1z"/>
</g>
</svg>
