<?xml version="1.0" encoding="utf-8"?>
<!-- Generator: Adobe Illustrator 18.0.0, SVG Export Plug-In . SVG Version: 6.00 Build 0)  -->
<!DOCTYPE svg PUBLIC "-//W3C//DTD SVG 1.1//EN" "http://www.w3.org/Graphics/SVG/1.1/DTD/svg11.dtd">
<svg version="1.1"
	 id="svg2" xmlns:rdf="http://www.w3.org/1999/02/22-rdf-syntax-ns#" xmlns:dc="http://purl.org/dc/elements/1.1/" xmlns:sodipodi="http://sodipodi.sourceforge.net/DTD/sodipodi-0.dtd" xmlns:svg="http://www.w3.org/2000/svg" xmlns:cc="http://web.resource.org/cc/" xmlns:inkscape="http://www.inkscape.org/namespaces/inkscape" inkscape:output_extension="org.inkscape.output.svg.inkscape" inkscape:version="0.45.1" sodipodi:version="0.32"
	 xmlns="http://www.w3.org/2000/svg" xmlns:xlink="http://www.w3.org/1999/xlink" x="0px" y="0px" viewBox="0 0 302 183"
	 enable-background="new 0 0 302 183" xml:space="preserve">
<g id="layer1" transform="translate(-426.36532,-582.1445)" inkscape:label="Layer 1" inkscape:groupmode="layer">
	<path id="path5944" fill="#FFFFFF" d="M558.1,713.4c0,9.5-3.7,15-22.3,15c-2.4,0-4.6-0.1-6.7-0.4V601.7c0-9.6,3.2-19.6,21.9-19.6
		c2.4,0,4.7,0.2,7,0.7V713.4z M518.4,694.3c0,17.7-11.5,30.7-35,33.3c-17.1,1.8-41.8-0.3-53.5-1.6c-0.5-1.9-0.8-4.3-0.8-6.2
		c0-15.5,8.3-19.1,16.3-19.1c8.1,0,21,1.5,30.6,1.5c10.4,0,13.7-3.5,13.7-7c0-4.5-4.2-6.3-12.4-7.9l-22.4-4.3
		c-18.5-3.6-28.5-16.4-28.5-30c0-16.6,11.7-30.5,34.8-33c17.4-1.9,38.7,0.2,50.4,1.6c0.5,2,0.6,3.9,0.6,5.9
		c0,15.5-8.1,18.9-16.1,18.9c-5.8,0-15.3-1.1-26-1.1c-10.9,0-15.5,3-15.5,6.7c0,3.9,4.4,5.4,11.1,6.7l21.5,3.9
		C509,666.5,518.4,678.9,518.4,694.3 M635.8,762.2c2.4,1.3,7.3,2.7,13.7,2.9c10.7,0.2,16.6-3.9,21-13.6l57.9-129
		c-2.3-1.3-7.6-2.7-12-2.7c-7.3-0.2-17.4,1.3-23.7,16.5l-18.7,44.2l-36.8-59.8c-2.4-0.7-8.1-1.8-12.4-1.8c-13,0-20.3,4.7-27.8,12.9
		L561.3,671l28.6,45.2c5.4,8.3,12.4,12.5,23.6,12.5c7.5,0,13.7-1.7,16.6-3.1l-34.5-52.1l24.4-26l40.2,63.1"/>
</g>
</svg>
