<?xml version="1.0" encoding="utf-8"?>
<!-- Generator: Adobe Illustrator 18.0.0, SVG Export Plug-In . SVG Version: 6.00 Build 0)  -->
<!DOCTYPE svg PUBLIC "-//W3C//DTD SVG 1.1//EN" "http://www.w3.org/Graphics/SVG/1.1/DTD/svg11.dtd">
<svg version="1.1" id="Layer_1" xmlns="http://www.w3.org/2000/svg" xmlns:xlink="http://www.w3.org/1999/xlink" x="0px" y="0px"
	 viewBox="0 0 292.4 61.2" enable-background="new 0 0 292.4 61.2" xml:space="preserve">
<g>
	<path fill="#FFFFFF" d="M213.8,50.2c-13.4,0-26.3,0-39.3,0c0-4-0.1-7.6,0-11.3c0.1-2.5,1.6-3.7,3.9-4.2c1.3-0.3,2.7-0.3,4.1-0.3
		c5,0,10.1,0,15.1-0.1c0.9,0,2.3-0.4,2.6-1.1c1.3-2.6,2.3-5.3,3.6-8.6c-10.1,0-19.7,0-29.3,0c0-5.1,0-9.8,0-14.8c1,0,2,0,2.9,0
		c10,0,20,0,30,0c0.9,0,2.4-0.3,2.7-0.9c1.4-2.8,2.4-5.7,3.7-8.9c-1.3,0-2.1,0-3,0c-7,0-13.9,0-20.9,0c-7.6,0-15.2,0-22.8,0
		c-4.1,0-5.3,1.3-5.3,5.4c0,16.7,0,33.4,0,50.1c0,3.2,1,4.4,4,4.4c14.1,0.1,28.2,0.1,42.2,0c0.8,0,1.9-0.8,2.3-1.5
		C211.6,56,212.5,53.3,213.8,50.2z"/>
	<path fill="#FFFFFF" d="M12.8,0c-3.8,0-7.3,0-10.7,0C0.4,0,0,0.8,0,2.2c0,12-0.1,24,0.1,36c0.2,11.2,6.3,18.7,17.1,21.4
		c8.4,2.1,16.8,2.1,25.1-0.2c8.3-2.3,13.7-7.6,15.6-16.1c0.5-2.4,0.7-4.9,0.7-7.4c0.1-11.1,0-22.2,0-33.3c0-0.8-0.1-1.6-0.1-2.5
		c-3.4,0-6.7,0.1-9.9,0c-2.1-0.1-2.8,0.6-2.8,2.7c0.1,5.8,0.1,11.5,0,17.3c0,6.3,0.1,12.6-0.3,18.9c-0.4,6.2-3.9,10.3-9.9,11.3
		c-3.6,0.6-7.4,0.8-10.9,0.3c-7.9-1-11.6-5.2-11.8-13.1C12.7,26,12.8,14.6,12.8,3.1C12.8,2.2,12.8,1.3,12.8,0z"/>
	<path fill="#FFFFFF" d="M129.7,28.2c6.2-4.3,7-10.4,5.9-17c-1.2-6.5-5.9-9.3-11.9-10.5c-0.6-0.1-1.3-0.3-1.9-0.3
		c-11.5-0.2-23-0.4-34.5-0.4c-3.4,0-4.6,1.5-4.6,5c0,16.8,0,33.6,0,50.4c0,3.5,1,4.5,4.6,4.6c10.8,0,21.6,0,32.4,0
		c1.9,0,3.8-0.2,5.7-0.6c6.1-1.2,11-4,12.9-10.4C140.8,40.2,137.7,32.8,129.7,28.2z M95.3,9.7c1.4,0,2.6,0,3.9,0
		c6.1,0.1,12.3,0,18.4,0.3c4,0.2,5.7,2.6,5.7,6.8c0.1,4.9-1.4,7.2-5.5,7.8c-2.2,0.3-4.5,0.3-6.7,0.3c-5.2,0-10.5,0-15.9,0
		C95.3,19.8,95.3,14.9,95.3,9.7z M125,47.3c-0.9,1.4-3.1,2.6-4.7,2.7c-7.2,0.4-14.3,0.3-21.5,0.4c-1.1,0-2.2,0-3.6,0
		c0-4-0.1-7.6,0-11.2c0.1-2.7,1.3-4.1,3.9-4.7c0.8-0.2,1.7-0.3,2.6-0.4c5.5,0,11-0.1,16.5,0c2.8,0,5.6,0.5,7,3.3
		C126.8,40.6,126.9,44.2,125,47.3z"/>
	<path fill="#FFFFFF" d="M278.4,36c4.7,8.1,9.1,15.8,13.9,24c-4.8,0-9,0.1-13.1-0.1c-0.6,0-1.4-1.2-1.8-2c-3.5-6.3-7-12.5-10.5-18.8
		c-0.7-1.3-1.5-1.9-3-1.8c-3.7,0.1-7.4,0-11,0.2c-4,0.3-5.4,1.7-5.4,5.8c-0.1,4.6,0,9.3,0,13.9c0,0.9,0,1.7,0,2.9
		c-3.8,0-7.5,0-11.1-0.1c-0.5,0-1-0.8-1.3-1.4c-0.2-0.3-0.1-0.8-0.1-1.2c0-17.5,0-35,0-52.6c0-3.3,1.1-4.7,4.4-4.7
		c11.7,0,23.3,0.2,35,0.5c1.9,0,3.8,0.7,5.6,1.3c5.8,1.9,9.2,5.9,10,11.9c0.3,2.6,0.5,5.3,0.3,7.9C289.6,28.9,286,33.9,278.4,36z
		 M247.6,27.8c1,0,1.9,0,2.7,0c5.8,0,11.7,0,17.5,0c7.9,0,10.4-2.7,9.8-10.5c0-0.2-0.1-0.5-0.1-0.7c-0.5-4.2-2.2-6.3-6.3-6.5
		c-7.7-0.3-15.5-0.2-23.2-0.3c-0.1,0-0.2,0.2-0.4,0.3C247.6,15.9,247.6,21.7,247.6,27.8z"/>
	<path fill="#FFFFFF" d="M213.8,50.2c-1.3,3.1-2.2,5.8-3.4,8.3c-0.4,0.7-1.5,1.5-2.3,1.5c-14.1,0.1-28.2,0.1-42.2,0
		c-3,0-4-1.2-4-4.4c0-16.7,0-33.4,0-50.1c0-4.1,1.2-5.3,5.3-5.4c7.6-0.1,15.2,0,22.8,0c7,0,13.9,0,20.9,0c0.9,0,1.7,0,3,0
		c-1.3,3.2-2.3,6.1-3.7,8.9c-0.3,0.6-1.8,0.9-2.7,0.9c-10,0.1-20,0-30,0c-0.9,0-1.9,0-2.9,0c0,5,0,9.7,0,14.8c9.6,0,19.3,0,29.3,0
		c-1.3,3.2-2.3,6-3.6,8.6c-0.3,0.6-1.7,1-2.6,1.1c-5,0.1-10.1,0-15.1,0.1c-1.4,0-2.7,0.1-4.1,0.3c-2.2,0.4-3.8,1.7-3.9,4.2
		c-0.1,3.7,0,7.3,0,11.3C187.5,50.2,200.4,50.2,213.8,50.2z"/>
	<path fill="#FFFFFF" d="M12.8,0c0,1.2,0,2.1,0,3.1c0.1,11.4,0,22.9,0.2,34.3c0.2,7.9,3.9,12.1,11.8,13.1c3.6,0.5,7.4,0.3,10.9-0.3
		c6-1,9.5-5.1,9.9-11.3c0.4-6.3,0.2-12.6,0.3-18.9c0-5.8,0.1-11.5,0-17.3c0-2.1,0.7-2.8,2.8-2.7c3.3,0.1,6.5,0,9.9,0
		c0,1,0.1,1.8,0.1,2.5c0,11.1,0,22.2,0,33.3c0,2.5-0.2,5-0.7,7.4c-1.8,8.6-7.3,13.9-15.6,16.1c-8.3,2.3-16.8,2.3-25.1,0.2
		C6.4,56.9,0.3,49.4,0.1,38.2c-0.2-12,0-24-0.1-36C0,0.8,0.4,0,2.1,0C5.5,0.1,8.9,0,12.8,0z"/>
</g>
</svg>
