<?xml version="1.0" encoding="utf-8"?>
<!-- Generator: Adobe Illustrator 18.0.0, SVG Export Plug-In . SVG Version: 6.00 Build 0)  -->
<!DOCTYPE svg PUBLIC "-//W3C//DTD SVG 1.1//EN" "http://www.w3.org/Graphics/SVG/1.1/DTD/svg11.dtd">
<svg version="1.1" id="WhatsApp_Logo" xmlns="http://www.w3.org/2000/svg" xmlns:xlink="http://www.w3.org/1999/xlink" x="0px"
	 y="0px" viewBox="0 0 857.6 199.3" enable-background="new 0 0 857.6 199.3" xml:space="preserve">
<g>
	<g>
		<path fill="#FFFFFF" d="M99.6,0C45.2,0,0.8,44.3,0.8,98.7c0,17.4,4.5,34.4,13.2,49.4L0,199.3l52.4-13.7c14.4,7.9,30.7,12,47.2,12
			h0c54.4,0,98.7-44.3,98.8-98.8c0-26.4-10.3-51.2-28.9-69.9C150.8,10.3,126,0,99.6,0z M99.6,180.9L99.6,180.9
			c-14.8,0-29.2-4-41.8-11.4l-3-1.8l-31.1,8.1l8.3-30.3l-2-3.1c-8.2-13.1-12.6-28.2-12.5-43.7c0-45.3,36.8-82.1,82.1-82.1
			c21.9,0,42.5,8.6,58,24.1c15.5,15.5,24,36.1,24,58.1C181.6,144.1,144.8,180.9,99.6,180.9z M144.6,119.4c-2.5-1.2-14.6-7.2-16.9-8
			c-2.3-0.8-3.9-1.2-5.6,1.2c-1.6,2.5-6.4,8-7.8,9.7c-1.4,1.6-2.9,1.9-5.3,0.6c-2.5-1.2-10.4-3.8-19.8-12.2
			c-7.3-6.5-12.3-14.6-13.7-17.1c-1.4-2.5-0.2-3.8,1.1-5c1.1-1.1,2.5-2.9,3.7-4.3c1.2-1.4,1.6-2.5,2.5-4.1c0.8-1.6,0.4-3.1-0.2-4.3
			c-0.6-1.2-5.6-13.4-7.6-18.3c-2-4.8-4-4.2-5.6-4.2c-1.4-0.1-3.1-0.1-4.7-0.1c-1.6,0-4.3,0.6-6.6,3.1c-2.3,2.5-8.6,8.4-8.6,20.6
			c0,12.1,8.8,23.9,10.1,25.5c1.2,1.6,17.4,26.6,42.2,37.3c5.9,2.5,10.5,4.1,14.1,5.2c5.9,1.9,11.3,1.6,15.5,1
			c4.7-0.7,14.6-6,16.7-11.7c2.1-5.8,2.1-10.7,1.4-11.7C148.7,121.3,147.1,120.7,144.6,119.4z M319.3,117.9H319l-16.4-66.1h-19.7
			l-16.6,65.2H266l-15.2-65.2h-21.1l25.4,95.9h21.3l16-65.2h0.3l16.2,65.2h20.9l25.8-95.9H335L319.3,117.9z M420,84.3
			c-1.9-2.5-4.5-4.4-7.7-5.8c-3.3-1.4-7.5-2.1-12.5-2.1c-3.6,0-7.2,0.9-11,2.8c-3.8,1.8-6.8,4.8-9.3,8.8H379V51.9H360v95.9H379
			v-36.4c0-7.1,1.2-12.1,3.5-15.2c2.3-3.1,6.1-4.6,11.3-4.6c4.6,0,7.7,1.4,9.5,4.2c1.8,2.8,2.7,7.1,2.7,12.8v39.2h19.1V105
			c0-4.3-0.4-8.2-1.1-11.8C423.2,89.7,421.8,86.7,420,84.3z M498.5,132.3V96.2c0-4.2-0.9-7.6-2.8-10.1c-1.9-2.6-4.3-4.5-7.2-6
			c-3-1.4-6.2-2.4-9.8-2.9c-3.6-0.5-7.1-0.7-10.6-0.7c-3.8,0-7.7,0.4-11.5,1.1c-3.8,0.8-7.2,2-10.3,3.8c-3,1.8-5.6,4.2-7.5,7.1
			c-2,3-3.1,6.7-3.4,11.1h19.1c0.4-3.8,1.6-6.4,3.8-8.1c2.1-1.6,5.1-2.4,8.9-2.4c1.7,0,3.3,0.1,4.8,0.3c1.5,0.2,2.8,0.7,3.9,1.3
			c1.1,0.7,2,1.6,2.7,2.8c0.7,1.2,1,2.8,1,4.9c0.1,2-0.5,3.5-1.7,4.5c-1.3,1-3,1.8-5.1,2.3c-2.1,0.5-4.6,0.9-7.4,1.2
			c-2.8,0.3-5.6,0.6-8.5,1.1c-2.9,0.4-5.7,1.1-8.5,1.8c-2.8,0.8-5.3,1.9-7.5,3.4c-2.2,1.5-4,3.6-5.4,6.1c-1.4,2.6-2.1,5.8-2.1,9.7
			c0,3.6,0.6,6.7,1.8,9.3c1.2,2.6,2.9,4.7,5,6.4c2.1,1.7,4.7,3,7.5,3.8c2.9,0.8,5.9,1.2,9.3,1.2c4.3,0,8.5-0.6,12.6-1.9
			c4.1-1.3,7.7-3.4,10.7-6.6c0.1,1.2,0.2,2.3,0.5,3.4c0.2,1.1,0.5,2.2,0.9,3.3h19.3c-0.9-1.4-1.5-3.6-1.9-6.4
			C498.6,138.4,498.5,135.4,498.5,132.3z M479.4,120.9c0,1.1-0.1,2.5-0.3,4.3c-0.2,1.8-0.8,3.6-1.8,5.3c-1,1.7-2.5,3.2-4.6,4.5
			c-2.1,1.3-5,1.9-8.7,1.9c-1.5,0-3-0.1-4.4-0.4c-1.4-0.3-2.7-0.7-3.8-1.4c-1.1-0.7-1.9-1.6-2.6-2.8c-0.6-1.2-0.9-2.6-0.9-4.3
			c0-1.8,0.3-3.3,0.9-4.4c0.6-1.2,1.5-2.1,2.5-2.9c1-0.8,2.2-1.4,3.6-1.8c1.4-0.4,2.8-0.8,4.2-1.1c1.5-0.3,3-0.5,4.6-0.7
			c1.5-0.2,3-0.4,4.4-0.7c1.4-0.3,2.7-0.6,3.9-1c1.2-0.4,2.2-1,3-1.7V120.9z M534,57.5H515v20.8h-11.5v12.8H515V132
			c0,3.5,0.6,6.3,1.7,8.5c1.2,2.1,2.8,3.8,4.8,5c2,1.2,4.3,1.9,7,2.3c2.6,0.4,5.4,0.6,8.4,0.6c1.9,0,3.8,0,5.8-0.1
			c2-0.1,3.8-0.3,5.4-0.5v-14.8c-0.9,0.2-1.8,0.3-2.8,0.4c-1,0.1-2,0.1-3.1,0.1c-3.2,0-5.4-0.5-6.4-1.6c-1.1-1.1-1.6-3.2-1.6-6.4
			V91.1h14V78.3h-14V57.5z M612.8,117.3c-1.3-2.2-2.9-4-5-5.5c-2.1-1.5-4.4-2.7-7-3.6c-2.6-0.9-5.3-1.6-8.1-2.3
			c-2.7-0.6-5.3-1.2-7.9-1.7c-2.6-0.5-4.9-1.1-6.9-1.8c-2-0.7-3.6-1.5-4.9-2.6c-1.3-1.1-1.9-2.5-1.9-4.2c0-1.4,0.3-2.6,1.1-3.4
			c0.7-0.8,1.6-1.5,2.6-1.9c1-0.4,2.2-0.7,3.4-0.9c1.3-0.1,2.4-0.2,3.5-0.2c3.4,0,6.4,0.6,8.9,1.9c2.5,1.3,3.9,3.8,4.2,7.4h18.1
			c-0.4-4.3-1.5-7.8-3.3-10.7c-1.8-2.8-4.1-5.1-6.9-6.8c-2.8-1.7-5.9-2.9-9.5-3.6c-3.5-0.7-7.2-1.1-10.9-1.1c-3.8,0-7.4,0.3-11,1
			c-3.6,0.7-6.8,1.8-9.7,3.5c-2.9,1.7-5.2,3.9-6.9,6.8c-1.7,2.9-2.6,6.5-2.6,11c0,3,0.6,5.6,1.9,7.7c1.2,2.1,2.9,3.8,5,5.2
			c2.1,1.4,4.4,2.5,7.1,3.4c2.6,0.9,5.3,1.6,8.1,2.2c6.8,1.4,12.1,2.9,15.9,4.3c3.8,1.4,5.7,3.6,5.7,6.4c0,1.7-0.4,3.1-1.2,4.2
			c-0.8,1.1-1.8,2-3,2.7c-1.2,0.7-2.6,1.2-4,1.5c-1.5,0.3-2.9,0.5-4.2,0.5c-1.9,0-3.7-0.2-5.4-0.7c-1.7-0.4-3.3-1.1-4.6-2.1
			c-1.3-0.9-2.4-2.1-3.3-3.6c-0.8-1.5-1.3-3.2-1.3-5.3h-18.1c0.2,4.7,1.2,8.5,3.2,11.6c1.9,3.1,4.4,5.6,7.4,7.5
			c3,1.9,6.4,3.2,10.3,4c3.8,0.8,7.8,1.2,11.8,1.2c3.9,0,7.8-0.4,11.6-1.1c3.8-0.8,7.2-2.1,10.1-4c3-1.9,5.3-4.4,7.2-7.4
			c1.8-3.1,2.7-6.9,2.7-11.5C614.7,122.2,614.1,119.5,612.8,117.3z M650.7,51.9l-36.2,95.9h21.2l7.5-21.3H679l7.2,21.3h21.9
			l-35.8-95.9H650.7z M648.6,110.7l12.5-35.2h0.3l12.1,35.2H648.6z M774,87.7c-2.6-3.4-5.9-6.1-9.8-8.2c-3.9-2.1-8.6-3.1-14.1-3.1
			c-4.3,0-8.2,0.8-11.8,2.5c-3.6,1.7-6.5,4.4-8.9,8.2h-0.3v-8.9H711V172h19.1v-32.9h0.3c2.3,3.4,5.3,6,8.9,7.7
			c3.6,1.7,7.6,2.6,11.9,2.6c5.1,0,9.6-1,13.4-3c3.8-2,7-4.6,9.5-7.9c2.6-3.3,4.4-7.1,5.7-11.4c1.2-4.3,1.9-8.8,1.9-13.4
			c0-4.9-0.6-9.6-1.9-14.2C778.5,95.1,776.6,91.1,774,87.7z M761.8,121.4c-0.5,2.7-1.5,5-2.8,7c-1.3,2-3,3.7-5.1,4.9
			c-2.1,1.3-4.7,1.9-7.8,1.9c-3,0-5.6-0.6-7.8-1.9c-2.2-1.2-3.9-2.9-5.2-4.9c-1.3-2-2.2-4.4-2.8-7c-0.6-2.7-0.9-5.4-0.9-8.2
			c0-2.9,0.3-5.6,0.8-8.3c0.5-2.7,1.5-5.1,2.8-7.1c1.3-2.1,3-3.7,5.1-5c2.1-1.3,4.7-2,7.8-2c3,0,5.6,0.7,7.7,2
			c2.1,1.3,3.8,3,5.2,5.1c1.3,2.1,2.3,4.5,2.9,7.2c0.6,2.7,0.9,5.4,0.9,8.2C762.6,116,762.3,118.7,761.8,121.4z M855.7,99.6
			c-1.3-4.5-3.2-8.5-5.8-11.9c-2.6-3.4-5.9-6.1-9.8-8.2c-3.9-2.1-8.6-3.1-14.1-3.1c-4.3,0-8.2,0.8-11.8,2.5
			c-3.6,1.7-6.5,4.4-8.9,8.2h-0.3v-8.9H787V172h19.1v-32.9h0.3c2.3,3.4,5.3,6,8.9,7.7c3.6,1.7,7.6,2.6,11.9,2.6c5.1,0,9.5-1,13.4-3
			c3.8-2,7-4.6,9.5-7.9c2.6-3.3,4.5-7.1,5.7-11.4c1.3-4.3,1.9-8.8,1.9-13.4C857.6,108.8,857,104.1,855.7,99.6z M837.7,121.4
			c-0.5,2.7-1.5,5-2.7,7c-1.3,2-3,3.7-5.1,4.9c-2.1,1.3-4.7,1.9-7.8,1.9c-3,0-5.6-0.6-7.8-1.9c-2.2-1.2-3.9-2.9-5.2-4.9
			c-1.3-2-2.2-4.4-2.8-7c-0.6-2.7-0.9-5.4-0.9-8.2c0-2.9,0.3-5.6,0.8-8.3c0.5-2.7,1.5-5.1,2.8-7.1c1.3-2.1,3-3.7,5.1-5
			c2.1-1.3,4.7-2,7.9-2c3,0,5.6,0.7,7.7,2c2.1,1.3,3.8,3,5.2,5.1c1.3,2.1,2.3,4.5,2.9,7.2c0.6,2.7,0.9,5.4,0.9,8.2
			C838.5,116,838.3,118.7,837.7,121.4z"/>
	</g>
</g>
</svg>
