<?xml version="1.0" encoding="utf-8"?>
<!-- Generator: Adobe Illustrator 18.0.0, SVG Export Plug-In . SVG Version: 6.00 Build 0)  -->
<!DOCTYPE svg PUBLIC "-//W3C//DTD SVG 1.1//EN" "http://www.w3.org/Graphics/SVG/1.1/DTD/svg11.dtd">
<svg version="1.1" xmlns="http://www.w3.org/2000/svg" xmlns:xlink="http://www.w3.org/1999/xlink" x="0px" y="0px"
	 viewBox="0 0 188.6 188.6" enable-background="new 0 0 188.6 188.6" xml:space="preserve">
<g id="Layer_3">
</g>
<g id="Infer_1_">
	<g id="Group_2_1_">
		<path fill="#FFFFFF" d="M145.2,92c-1-1-2.5-1.6-3.9-1.6h0l-65.8,0l0.1-81.3c0-1.5-0.6-3-1.7-4.1c-1-1-2.4-1.5-3.8-1.5
			c-0.1,0-0.2,0-0.3,0l-3,0.2c-3,0.2-5.3,2.6-5.3,5.6l-0.4,171.4c0,1.5,0.6,2.9,1.6,4c1,1,2.5,1.6,4,1.6h3c3.1,0,5.6-2.5,5.6-5.6
			l0.1-75.8h65.9c3.1,0,5.6-2.5,5.6-5.6v-3.4C146.8,94.5,146.2,93,145.2,92z"/>
	</g>
</g>
</svg>
